# xmcd
#
# Track frame offsets: 
#        150
#        28255
#        50613
#        74239
#        90561
#        117668
#        160236
#        182792
#        204087
#        231860
#        251213
#        274503
#        301021
#        331666
#
# Disc length: 4660 seconds
#
# Revision: 0
# Processed by: cddbd v1.5.2PL0 Copyright (c) Steve Scherf et al.
# Submitted via: ExactAudioCopy v1.0b3
#
DISCID=c612320e
DTITLE=Chris Duarte Group - Lucky 13
DYEAR=2014
DGENRE=Blues-Rock
TTITLE0=You know You're Wrong
TTITLE1=Angry Man
TTITLE2=Crazy For Your Love
TTITLE3=Who Loves You
TTITLE4=Here I Come
TTITLE5=Let It Go
TTITLE6=Man Up
TTITLE7=Not Chasing It
TTITLE8=Weak Wheels
TTITLE9=Ain't Gonna Hurt No More
TTITLE10=Let's Go For A Ride
TTITLE11=Minefield Of My Mind
TTITLE12=Setting Sun
TTITLE13=Jump The Trane'
EXTD=
EXTT0=
EXTT1=
EXTT2=
EXTT3=
EXTT4=
EXTT5=
EXTT6=
EXTT7=
EXTT8=
EXTT9=
EXTT10=
EXTT11=
EXTT12=
EXTT13=
PLAYORDER=
